<?xml version="1.0" encoding="UTF-8" standalone="no"?>
<!-- Generator: Adobe Illustrator 20.1.0, SVG Export Plug-In . SVG Version: 6.00 Build 0)  -->

<svg
   xmlns:dc="http://purl.org/dc/elements/1.1/"
   xmlns:cc="http://creativecommons.org/ns#"
   xmlns:rdf="http://www.w3.org/1999/02/22-rdf-syntax-ns#"
   xmlns:svg="http://www.w3.org/2000/svg"
   xmlns="http://www.w3.org/2000/svg"
   xmlns:sodipodi="http://sodipodi.sourceforge.net/DTD/sodipodi-0.dtd"
   xmlns:inkscape="http://www.inkscape.org/namespaces/inkscape"
   version="1.1"
   id="Layer_1"
   x="0px"
   y="0px"
   viewBox="0 0 14.9 19.9"
   xml:space="preserve"
   inkscape:version="0.91 r13725"
   sodipodi:docname="remove_icon.svg"
   width="14.9"
   height="19.9"><metadata
     id="metadata29"><rdf:RDF><cc:Work
         rdf:about=""><dc:format>image/svg+xml</dc:format><dc:type
           rdf:resource="http://purl.org/dc/dcmitype/StillImage" /><dc:title></dc:title></cc:Work></rdf:RDF></metadata><defs
     id="defs27" /><sodipodi:namedview
     pagecolor="#ffffff"
     bordercolor="#666666"
     borderopacity="1"
     objecttolerance="10"
     gridtolerance="10"
     guidetolerance="10"
     inkscape:pageopacity="0"
     inkscape:pageshadow="2"
     inkscape:window-width="1221"
     inkscape:window-height="741"
     id="namedview25"
     showgrid="false"
     fit-margin-top="0"
     fit-margin-left="0"
     fit-margin-right="0"
     fit-margin-bottom="0"
     inkscape:zoom="10.727273"
     inkscape:cx="-4.9983051"
     inkscape:cy="9.9"
     inkscape:window-x="0"
     inkscape:window-y="0"
     inkscape:window-maximized="0"
     inkscape:current-layer="Layer_1" /><style
     type="text/css"
     id="style3">
	.st0{fill:#C0CECB;}
</style><g
     id="g5"
     transform="translate(-3.6,-1)"><g
       id="g7"><path
         class="st0"
         d="m 16.1,3.6 -1.9,0 0,-0.3 C 14.2,2 13.2,1 11.9,1 L 10.2,1 C 8.9,1 7.8,2 7.8,3.3 l 0,0.2 -1.9,0 c -1.3,0 -2.3,1 -2.3,2.3 l 0,1.3 c 0,0.5 0.4,0.9 0.9,1 l 0,10.5 c 0,1.3 1,2.3 2.3,2.3 l 8.5,0 c 1.3,0 2.3,-1 2.3,-2.3 l 0,-10.4 c 0.5,-0.1 0.9,-0.5 0.9,-1 l 0,-1.3 C 18.4,4.6 17.4,3.6 16.1,3.6 Z m -7,-0.3 c 0,-0.6 0.5,-1.1 1.1,-1.1 l 1.7,0 c 0.6,0 1.1,0.5 1.1,1.1 l 0,0.2 -3.9,0 0,-0.2 z m 7.2,15.4 c 0,0.6 -0.5,1.1 -1.1,1.1 l -8.5,0 c -0.6,0 -1.1,-0.5 -1.1,-1.1 l 0,-10.5 10.6,0 0.1,10.5 0,0 z M 17.2,7 4.8,7 4.8,5.9 C 4.8,5.3 5.3,4.8 5.9,4.8 l 10.2,0 c 0.6,0 1.1,0.5 1.1,1.1 l 0,1.1 z"
         id="path9"
         inkscape:connector-curvature="0"
         style="fill:#c0cecb" /></g><g
       id="g11"><g
         id="g13"><path
           class="st0"
           d="m 11,18 c -0.4,0 -0.6,-0.3 -0.6,-0.6 l 0,-6.8 c 0,-0.4 0.3,-0.6 0.6,-0.6 0.3,0 0.6,0.3 0.6,0.6 l 0,6.8 c 0,0.3 -0.2,0.6 -0.6,0.6 z"
           id="path15"
           inkscape:connector-curvature="0"
           style="fill:#c0cecb" /></g><g
         id="g17"><path
           class="st0"
           d="M 8,18 C 7.6,18 7.4,17.7 7.4,17.4 l 0,-6.8 C 7.4,10.2 7.7,10 8,10 c 0.4,0 0.6,0.3 0.6,0.6 l 0,6.8 C 8.7,17.7 8.4,18 8,18 Z"
           id="path19"
           inkscape:connector-curvature="0"
           style="fill:#c0cecb" /></g><g
         id="g21"><path
           class="st0"
           d="m 14,18 c -0.4,0 -0.6,-0.3 -0.6,-0.6 l 0,-6.8 c 0,-0.4 0.3,-0.6 0.6,-0.6 0.4,0 0.6,0.3 0.6,0.6 l 0,6.8 c 0,0.3 -0.3,0.6 -0.6,0.6 z"
           id="path23"
           inkscape:connector-curvature="0"
           style="fill:#c0cecb" /></g></g></g></svg>