<?xml version="1.0" encoding="UTF-8" standalone="no"?>
<!-- Generator: Adobe Illustrator 19.1.0, SVG Export Plug-In . SVG Version: 6.00 Build 0)  -->

<svg
   xmlns:dc="http://purl.org/dc/elements/1.1/"
   xmlns:cc="http://creativecommons.org/ns#"
   xmlns:rdf="http://www.w3.org/1999/02/22-rdf-syntax-ns#"
   xmlns:svg="http://www.w3.org/2000/svg"
   xmlns="http://www.w3.org/2000/svg"
   xmlns:sodipodi="http://sodipodi.sourceforge.net/DTD/sodipodi-0.dtd"
   xmlns:inkscape="http://www.inkscape.org/namespaces/inkscape"
   version="1.1"
   id="Capa_1"
   x="0px"
   y="0px"
   viewBox="0 0 50.300737 57.010715"
   xml:space="preserve"
   inkscape:version="0.91 r13725"
   sodipodi:docname="iso_blanco_transparent.svg"
   inkscape:export-filename="/Users/ezgonzalez/Downloads/loco_blanco_calado.png"
   inkscape:export-xdpi="1154.59"
   inkscape:export-ydpi="1154.59"
   width="50.300735"
   height="57.010715"><metadata
     id="metadata29"><rdf:RDF><cc:Work
         rdf:about=""><dc:format>image/svg+xml</dc:format><dc:type
           rdf:resource="http://purl.org/dc/dcmitype/StillImage" /><dc:title></dc:title></cc:Work></rdf:RDF></metadata><defs
     id="defs27" /><sodipodi:namedview
     pagecolor="#000000"
     bordercolor="#666666"
     borderopacity="1"
     objecttolerance="10"
     gridtolerance="10"
     guidetolerance="10"
     inkscape:pageopacity="0"
     inkscape:pageshadow="2"
     inkscape:window-width="1621"
     inkscape:window-height="894"
     id="namedview25"
     showgrid="false"
     showguides="false"
     inkscape:zoom="4.24"
     inkscape:cx="85.404015"
     inkscape:cy="27.05"
     inkscape:window-x="0"
     inkscape:window-y="0"
     inkscape:window-maximized="0"
     inkscape:current-layer="Capa_1"
     fit-margin-top="0"
     fit-margin-left="0"
     fit-margin-right="0"
     fit-margin-bottom="0" /><style
     type="text/css"
     id="style3">
	.st0{fill:#BE3969;}
	.st1{fill:#BF3969;}
	.st2{fill:#9B214A;}
</style><g
     id="g13"
     transform="translate(-3.6992633,-8.2892857)"><g
       id="g15"><path
         class="st1"
         d="m 33,65.3 c -0.1,0 -0.1,0 -0.2,0 l -16.3,0 C 9.7,65.2 4.1,59.9 3.7,53.2 l 0,-0.2 0,-1.6 C 3.6,36 13.7,16.5 22,10.7 26.3,7.7 31.4,7.5 36.5,10.1 46.5,15.4 54,30.2 54,40 c 0,6.2 -2.9,10.6 -7.9,12.6 0,2.5 -0.8,4.9 -2.2,7.1 -2.4,3.5 -6.5,5.6 -10.9,5.6 z m -0.2,-5.6 c 2.6,0 5,-1.2 6.4,-3.2 0.6,-0.8 1,-1.8 1.1,-2.7 -0.3,0 -0.6,0 -1,0 l -15,0 c -1.5,0 -2.5,-0.3 -2.7,-0.3 -2.1,-0.6 -3.9,-1.9 -4.9,-3.8 -0.9,-1.7 -1.1,-3.7 -0.5,-5.6 0.1,-0.3 0.2,-0.6 0.3,-0.8 L 23,28.7 c 1.3,-3 4.2,-4.9 7.5,-4.9 3.3,0 6.3,1.7 7.7,4.7 l 0.1,0.3 6.6,18.2 c 3.5,-1.9 3.5,-5.5 3.5,-7 0,-8.7 -7.2,-21 -14.5,-24.8 -3.2,-1.7 -6,-1.6 -8.6,0.2 -6.3,4.4 -16,21.8 -16,36.1 l 0,1.5 c 0.3,3.7 3.5,6.7 7.2,6.7 l 16.3,0 z M 23.2,48 c 0,0 0.5,0.1 1.2,0.1 l 14.9,0 L 33,30.8 c -0.7,-1.3 -2,-1.4 -2.4,-1.3 -0.4,0 -1.8,0.1 -2.4,1.5 l -6.4,14.6 c 0,0.1 -0.1,0.2 -0.1,0.3 -0.1,0.4 -0.1,0.8 0.1,1.2 0.3,0.4 0.8,0.7 1.4,0.9 l 0,0 z"
         id="path17"
         style="fill:#ffffff;fill-opacity:1"
         inkscape:connector-curvature="0" /></g></g><g
     id="g19"
     transform="translate(-3.6992633,-8.2892857)"><path
       class="st2"
       d="m 39.7,55.8 c 2.3,0 4.4,-0.4 6.2,-1 0.1,-0.7 0.2,-1.5 0.2,-2.2 -1.7,0.7 -3.6,1 -5.8,1.1 0,0.7 -0.2,1.4 -0.6,2.1 z"
       id="path21"
       style="fill:#c8c8c8;fill-opacity:1"
       inkscape:connector-curvature="0" /><path
       class="st2"
       d="m 44.9,47 -0.7,-1.9 c -1.1,0.6 -2.6,1 -4.9,1 l -0.8,0 0.7,2 0,0 c 2.6,0 4.4,-0.4 5.7,-1.1 z"
       id="path23"
       style="fill:#c8c8c8;fill-opacity:1"
       inkscape:connector-curvature="0" /></g></svg>