<svg id="icon_top_rated" viewBox="0 0 30 30" width="100%" height="100%">
        <title>Top Rated</title>
        <path d="M24.7750847,5.22491532 C24.7021599,5.15199056 24.6169531,5.09595364 24.52407,5.05757218 C24.4304192,5.01919073 24.3313951,5 24.2323709,5 L8.84447835,5.00076763 C8.41997947,5.00076763 8.07684927,5.34466546 8.07684927,5.76839671 C8.07684927,6.19289559 8.4207471,6.53602579 8.84447835,6.53602579 L22.3785467,6.53525816 L5.22510723,23.6894653 C4.92496426,23.9896082 4.92496426,24.4747498 5.22510723,24.7748928 C5.3747949,24.9245804 5.57130794,24.9998081 5.76782099,24.9998081 C5.96433403,24.9998081 6.16084708,24.9245804 6.31053475,24.7748928 L23.4647418,7.62068568 L23.4647418,21.1539864 C23.4647418,21.5784853 23.807872,21.9216155 24.2323709,21.9216155 C24.6568698,21.9216155 25,21.5784853 25,21.1539864 L25,5.76762908 C25,5.66860493 24.9808093,5.56958078 24.9424278,5.47593003 C24.9040464,5.38304691 24.8480094,5.29784008 24.7750847,5.22491532 Z"></path>
      </svg>